<svg width="1170" height="574" viewBox="0 0 1170 574" fill="none" xmlns="http://www.w3.org/2000/svg">
<g clip-path="url(#clip0_15_2)">
<mask id="mask0_15_2" style="mask-type:luminance" maskUnits="userSpaceOnUse" x="0" y="0" width="1170" height="574">
<path d="M1170 0H0V574H1170V0Z" fill="white"/>
</mask>
<g mask="url(#mask0_15_2)">
<path d="M1141 0H29C12.9837 0 0 29.1119 0 65.0234V508.977C0 544.887 12.9837 574 29 574H1141C1157.02 574 1170 544.887 1170 508.977V65.0234C1170 29.1119 1157.02 0 1141 0Z" fill="#032A60"/>
<mask id="mask1_15_2" style="mask-type:luminance" maskUnits="userSpaceOnUse" x="0" y="0" width="1170" height="574">
<path d="M1141 0H29C12.9837 0 0 29.1119 0 65.0234V508.977C0 544.887 12.9837 574 29 574H1141C1157.02 574 1170 544.887 1170 508.977V65.0234C1170 29.1119 1157.02 0 1141 0Z" fill="white"/>
</mask>
<g mask="url(#mask1_15_2)">
<path d="M0 238.656L13.6333 270.668C27.2667 302.68 54.5333 366.703 81.8 324.088C109.067 280.673 136.333 132.619 163.6 100.006C190.867 68.5952 218.133 152.626 245.4 185.238C272.667 216.649 299.933 196.642 327.2 185.238C354.467 174.635 381.733 174.635 409 153.227C436.267 132.619 463.533 88.6023 490.8 142.623C518.067 196.644 545.333 344.696 572.6 420.123C599.867 494.75 627.133 494.75 654.4 430.726C681.667 366.703 708.933 238.656 736.2 174.633C763.467 110.609 790.733 110.609 818 89.2054C845.267 68.5975 872.533 24.5811 899.8 78.6021C927.067 132.623 954.333 280.677 981.6 356.104C1008.87 430.731 1036.13 430.731 1063.4 366.708C1090.67 302.684 1117.93 174.637 1145.2 132.022C1172.47 88.6068 1199.73 132.623 1227 196.046C1254.27 260.67 1281.53 344.703 1308.8 409.325C1336.07 472.747 1363.33 516.764 1390.6 441.336C1417.87 366.71 1445.13 174.639 1472.4 153.231C1499.67 132.623 1526.93 280.677 1554.2 281.278C1581.47 280.677 1608.73 132.621 1622.37 57.1959L1636 -17.4375V-81.4609H0V238.656Z" fill="url(#paint0_linear_15_2)"/>
</g>
</g>
</g>
<defs>
<linearGradient id="paint0_linear_15_2" x1="827.816" y1="515.391" x2="826.655" y2="-81.4777" gradientUnits="userSpaceOnUse">
<stop stop-color="#4C89D4"/>
<stop offset="1" stop-color="#032A60"/>
</linearGradient>
<clipPath id="clip0_15_2">
<rect width="1170" height="574" fill="white"/>
</clipPath>
</defs>
</svg>
