<svg width="1692" height="1666" viewBox="0 0 1692 1666" fill="none" xmlns="http://www.w3.org/2000/svg">
<rect width="1692" height="1666" fill="url(#paint0_linear_1_15)"/>
<g clip-path="url(#clip0_1_15)">
<mask id="mask0_1_15" style="mask-type:luminance" maskUnits="userSpaceOnUse" x="0" y="1149" width="1692" height="517">
<path d="M1692 1149H0V1666H1692V1149Z" fill="white"/>
</mask>
<g mask="url(#mask0_1_15)">
<mask id="mask1_1_15" style="mask-type:luminance" maskUnits="userSpaceOnUse" x="0" y="1149" width="1692" height="517">
<path d="M0 1149H1692V1666H0V1149Z" fill="white"/>
</mask>
<g mask="url(#mask1_1_15)">
<path d="M-21.41 1701C40.8 1621.99 136.43 1468.69 230.2 1395.51C577.761 1124.83 734.252 1427.46 1296.48 1191.12C1652.94 1041.28 1702.04 1430.3 1690.27 1699.85L-21.41 1701Z" fill="#2D63AD"/>
<path opacity="0.05" d="M243.485 1873.43C202.085 1687.72 339.944 1625.46 471.512 1529.17C727.06 1342.54 841.768 1519.31 1255.15 1356.37C1668.54 1193.42 1519.72 1873.44 1519.72 1873.44L243.485 1873.43Z" fill="white"/>
<path d="M1656.32 1873.43C1697.72 1687.72 1559.86 1625.46 1428.29 1529.17C1172.74 1342.54 1058.03 1519.31 644.647 1356.36C231.261 1193.42 380.077 1873.43 380.077 1873.43H1656.32Z" fill="url(#paint1_linear_1_15)"/>
</g>
</g>
</g>
<defs>
<linearGradient id="paint0_linear_1_15" x1="1692" y1="1666" x2="-322.85" y2="624.686" gradientUnits="userSpaceOnUse">
<stop stop-color="#032A60"/>
<stop offset="1" stop-color="#08397C"/>
</linearGradient>
<linearGradient id="paint1_linear_1_15" x1="883.161" y1="1145.14" x2="884.732" y2="1775.3" gradientUnits="userSpaceOnUse">
<stop stop-color="#2D63AD"/>
<stop offset="1" stop-color="#032A60"/>
</linearGradient>
<clipPath id="clip0_1_15">
<rect width="1692" height="517" fill="white" transform="translate(0 1149)"/>
</clipPath>
</defs>
</svg>
